<mxfile host="Electron" modified="2024-08-19T04:15:59.730Z" agent="Mozilla/5.0 (X11; Linux x86_64) AppleWebKit/537.36 (KHTML, like Gecko) draw.io/24.2.5 Chrome/120.0.6099.109 Electron/28.1.0 Safari/537.36" etag="4qQ2Ifl2pazmAM55rq05" version="24.2.5" type="device">
  <diagram name="Page-1" id="G8ZvJWXJsHYqm7BaVf0D">
    <mxGraphModel dx="1420" dy="821" grid="1" gridSize="10" guides="1" tooltips="1" connect="1" arrows="1" fold="1" page="1" pageScale="1" pageWidth="850" pageHeight="1100" math="0" shadow="0">
      <root>
        <mxCell id="pUB8m92aT1Gspuc-Nzx4-0" />
        <mxCell id="pUB8m92aT1Gspuc-Nzx4-1" parent="pUB8m92aT1Gspuc-Nzx4-0" />
        <mxCell id="CJ7Yq6GX4A4KFnFIdWCx-33" value="0" style="rounded=0;whiteSpace=wrap;html=1;shadow=0;strokeColor=#6c8ebf;strokeWidth=1;fontFamily=Ubuntu;fontSize=16;fontStyle=0;fillColor=#dae8fc;" parent="pUB8m92aT1Gspuc-Nzx4-1" vertex="1">
          <mxGeometry x="120" y="360" width="40" height="40" as="geometry" />
        </mxCell>
        <mxCell id="CJ7Yq6GX4A4KFnFIdWCx-34" value="3" style="rounded=0;whiteSpace=wrap;html=1;shadow=0;strokeColor=#82b366;strokeWidth=1;fontFamily=Ubuntu;fontSize=16;fontStyle=0;fillColor=#d5e8d4;" parent="pUB8m92aT1Gspuc-Nzx4-1" vertex="1">
          <mxGeometry x="240" y="400" width="40" height="40" as="geometry" />
        </mxCell>
        <mxCell id="CJ7Yq6GX4A4KFnFIdWCx-42" value="1" style="rounded=0;whiteSpace=wrap;html=1;shadow=0;strokeColor=#6c8ebf;strokeWidth=1;fontFamily=Ubuntu;fontSize=16;fontStyle=0;fillColor=#dae8fc;" parent="pUB8m92aT1Gspuc-Nzx4-1" vertex="1">
          <mxGeometry x="120" y="520" width="40" height="40" as="geometry" />
        </mxCell>
        <mxCell id="CJ7Yq6GX4A4KFnFIdWCx-48" value="3" style="rounded=0;whiteSpace=wrap;html=1;shadow=0;strokeColor=#6c8ebf;strokeWidth=1;fontFamily=Ubuntu;fontSize=16;fontStyle=0;fillColor=#dae8fc;" parent="pUB8m92aT1Gspuc-Nzx4-1" vertex="1">
          <mxGeometry x="120" y="680" width="40" height="40" as="geometry" />
        </mxCell>
        <mxCell id="CJ7Yq6GX4A4KFnFIdWCx-49" value="2" style="rounded=0;whiteSpace=wrap;html=1;shadow=0;strokeColor=#82b366;strokeWidth=1;fontFamily=Ubuntu;fontSize=16;fontStyle=0;fillColor=#d5e8d4;" parent="pUB8m92aT1Gspuc-Nzx4-1" vertex="1">
          <mxGeometry x="240" y="720" width="40" height="40" as="geometry" />
        </mxCell>
        <mxCell id="jhIle7GFeXjiL3y6icWB-3" style="edgeStyle=orthogonalEdgeStyle;rounded=1;orthogonalLoop=1;jettySize=auto;html=1;shadow=0;strokeColor=#6c8ebf;strokeWidth=1;fontFamily=Ubuntu;fontSize=14;fontStyle=0;endArrow=block;endFill=1;fillColor=#dae8fc;" parent="pUB8m92aT1Gspuc-Nzx4-1" source="jhIle7GFeXjiL3y6icWB-0" target="CJ7Yq6GX4A4KFnFIdWCx-42" edge="1">
          <mxGeometry relative="1" as="geometry" />
        </mxCell>
        <mxCell id="jhIle7GFeXjiL3y6icWB-0" value="" style="rounded=0;whiteSpace=wrap;html=1;shadow=0;strokeColor=#b85450;strokeWidth=1;fontFamily=Ubuntu;fontSize=16;fontStyle=0;fillColor=#f8cecc;" parent="pUB8m92aT1Gspuc-Nzx4-1" vertex="1">
          <mxGeometry x="120" y="440" width="40" height="40" as="geometry" />
        </mxCell>
        <mxCell id="jhIle7GFeXjiL3y6icWB-4" style="edgeStyle=orthogonalEdgeStyle;rounded=1;orthogonalLoop=1;jettySize=auto;html=1;shadow=0;strokeColor=#6c8ebf;strokeWidth=1;fontFamily=Ubuntu;fontSize=14;fontStyle=0;endArrow=block;endFill=1;fillColor=#dae8fc;" parent="pUB8m92aT1Gspuc-Nzx4-1" target="CJ7Yq6GX4A4KFnFIdWCx-48" edge="1">
          <mxGeometry relative="1" as="geometry">
            <mxPoint x="140" y="630" as="sourcePoint" />
          </mxGeometry>
        </mxCell>
        <mxCell id="jhIle7GFeXjiL3y6icWB-1" value="" style="rounded=0;whiteSpace=wrap;html=1;shadow=0;strokeColor=#b85450;strokeWidth=1;fontFamily=Ubuntu;fontSize=16;fontStyle=0;fillColor=#f8cecc;" parent="pUB8m92aT1Gspuc-Nzx4-1" vertex="1">
          <mxGeometry x="120" y="600" width="40" height="40" as="geometry" />
        </mxCell>
        <mxCell id="jhIle7GFeXjiL3y6icWB-6" style="edgeStyle=orthogonalEdgeStyle;rounded=1;orthogonalLoop=1;jettySize=auto;html=1;shadow=0;strokeColor=#6c8ebf;strokeWidth=1;fontFamily=Ubuntu;fontSize=14;fontStyle=0;endArrow=block;endFill=1;fillColor=#dae8fc;" parent="pUB8m92aT1Gspuc-Nzx4-1" source="jhIle7GFeXjiL3y6icWB-2" target="jhIle7GFeXjiL3y6icWB-5" edge="1">
          <mxGeometry relative="1" as="geometry" />
        </mxCell>
        <mxCell id="jhIle7GFeXjiL3y6icWB-2" value="" style="rounded=0;whiteSpace=wrap;html=1;shadow=0;strokeColor=#b85450;strokeWidth=1;fontFamily=Ubuntu;fontSize=16;fontStyle=0;fillColor=#f8cecc;" parent="pUB8m92aT1Gspuc-Nzx4-1" vertex="1">
          <mxGeometry x="120" y="760" width="40" height="40" as="geometry" />
        </mxCell>
        <mxCell id="jhIle7GFeXjiL3y6icWB-5" value="NULL" style="text;html=1;align=center;verticalAlign=middle;whiteSpace=wrap;rounded=0;fontFamily=Ubuntu;fontSize=16;fontStyle=0;" parent="pUB8m92aT1Gspuc-Nzx4-1" vertex="1">
          <mxGeometry x="115" y="840" width="50" height="40" as="geometry" />
        </mxCell>
        <mxCell id="jhIle7GFeXjiL3y6icWB-7" value="2" style="rounded=0;whiteSpace=wrap;html=1;shadow=0;strokeColor=#6c8ebf;strokeWidth=1;fontFamily=Ubuntu;fontSize=16;fontStyle=0;fillColor=#dae8fc;" parent="pUB8m92aT1Gspuc-Nzx4-1" vertex="1">
          <mxGeometry x="200" y="400" width="40" height="40" as="geometry" />
        </mxCell>
        <mxCell id="jhIle7GFeXjiL3y6icWB-20" style="edgeStyle=orthogonalEdgeStyle;rounded=1;orthogonalLoop=1;jettySize=auto;html=1;entryX=0;entryY=0.5;entryDx=0;entryDy=0;shadow=0;strokeColor=#6c8ebf;strokeWidth=1;fontFamily=Ubuntu;fontSize=14;fontStyle=0;endArrow=block;endFill=1;fillColor=#dae8fc;" parent="pUB8m92aT1Gspuc-Nzx4-1" source="jhIle7GFeXjiL3y6icWB-8" target="jhIle7GFeXjiL3y6icWB-18" edge="1">
          <mxGeometry relative="1" as="geometry" />
        </mxCell>
        <mxCell id="jhIle7GFeXjiL3y6icWB-8" value="" style="rounded=0;whiteSpace=wrap;html=1;shadow=0;strokeColor=#b85450;strokeWidth=1;fontFamily=Ubuntu;fontSize=16;fontStyle=0;fillColor=#f8cecc;" parent="pUB8m92aT1Gspuc-Nzx4-1" vertex="1">
          <mxGeometry x="280" y="400" width="40" height="40" as="geometry" />
        </mxCell>
        <mxCell id="jhIle7GFeXjiL3y6icWB-11" style="edgeStyle=orthogonalEdgeStyle;rounded=1;orthogonalLoop=1;jettySize=auto;html=1;entryX=0;entryY=0.5;entryDx=0;entryDy=0;shadow=0;strokeColor=#6c8ebf;strokeWidth=1;fontFamily=Ubuntu;fontSize=14;fontStyle=0;endArrow=block;endFill=1;fillColor=#dae8fc;" parent="pUB8m92aT1Gspuc-Nzx4-1" source="jhIle7GFeXjiL3y6icWB-10" target="jhIle7GFeXjiL3y6icWB-7" edge="1">
          <mxGeometry relative="1" as="geometry" />
        </mxCell>
        <mxCell id="jhIle7GFeXjiL3y6icWB-10" value="" style="rounded=0;whiteSpace=wrap;html=1;shadow=0;strokeColor=#b85450;strokeWidth=1;fontFamily=Ubuntu;fontSize=16;fontStyle=0;fillColor=#f8cecc;" parent="pUB8m92aT1Gspuc-Nzx4-1" vertex="1">
          <mxGeometry x="120" y="400" width="40" height="40" as="geometry" />
        </mxCell>
        <mxCell id="jhIle7GFeXjiL3y6icWB-12" value="" style="rounded=0;whiteSpace=wrap;html=1;shadow=0;strokeColor=#b85450;strokeWidth=1;fontFamily=Ubuntu;fontSize=16;fontStyle=0;fillColor=#f8cecc;" parent="pUB8m92aT1Gspuc-Nzx4-1" vertex="1">
          <mxGeometry x="120" y="560" width="40" height="40" as="geometry" />
        </mxCell>
        <mxCell id="jhIle7GFeXjiL3y6icWB-13" value="5" style="rounded=0;whiteSpace=wrap;html=1;shadow=0;strokeColor=#82b366;strokeWidth=1;fontFamily=Ubuntu;fontSize=16;fontStyle=0;fillColor=#d5e8d4;" parent="pUB8m92aT1Gspuc-Nzx4-1" vertex="1">
          <mxGeometry x="240" y="560" width="40" height="40" as="geometry" />
        </mxCell>
        <mxCell id="jhIle7GFeXjiL3y6icWB-14" value="2" style="rounded=0;whiteSpace=wrap;html=1;shadow=0;strokeColor=#6c8ebf;strokeWidth=1;fontFamily=Ubuntu;fontSize=16;fontStyle=0;fillColor=#dae8fc;" parent="pUB8m92aT1Gspuc-Nzx4-1" vertex="1">
          <mxGeometry x="200" y="560" width="40" height="40" as="geometry" />
        </mxCell>
        <mxCell id="jhIle7GFeXjiL3y6icWB-28" style="edgeStyle=orthogonalEdgeStyle;rounded=1;orthogonalLoop=1;jettySize=auto;html=1;shadow=0;strokeColor=#6c8ebf;strokeWidth=1;fontFamily=Ubuntu;fontSize=14;fontStyle=0;endArrow=block;endFill=1;fillColor=#dae8fc;" parent="pUB8m92aT1Gspuc-Nzx4-1" source="jhIle7GFeXjiL3y6icWB-15" target="jhIle7GFeXjiL3y6icWB-24" edge="1">
          <mxGeometry relative="1" as="geometry" />
        </mxCell>
        <mxCell id="jhIle7GFeXjiL3y6icWB-15" value="" style="rounded=0;whiteSpace=wrap;html=1;shadow=0;strokeColor=#b85450;strokeWidth=1;fontFamily=Ubuntu;fontSize=16;fontStyle=0;fillColor=#f8cecc;" parent="pUB8m92aT1Gspuc-Nzx4-1" vertex="1">
          <mxGeometry x="280" y="560" width="40" height="40" as="geometry" />
        </mxCell>
        <mxCell id="jhIle7GFeXjiL3y6icWB-16" style="edgeStyle=orthogonalEdgeStyle;rounded=1;orthogonalLoop=1;jettySize=auto;html=1;entryX=0;entryY=0.5;entryDx=0;entryDy=0;shadow=0;strokeColor=#6c8ebf;strokeWidth=1;fontFamily=Ubuntu;fontSize=14;fontStyle=0;endArrow=block;endFill=1;fillColor=#dae8fc;" parent="pUB8m92aT1Gspuc-Nzx4-1" source="jhIle7GFeXjiL3y6icWB-12" target="jhIle7GFeXjiL3y6icWB-14" edge="1">
          <mxGeometry relative="1" as="geometry">
            <mxPoint x="160" y="580" as="sourcePoint" />
          </mxGeometry>
        </mxCell>
        <mxCell id="jhIle7GFeXjiL3y6icWB-17" value="4" style="rounded=0;whiteSpace=wrap;html=1;shadow=0;strokeColor=#82b366;strokeWidth=1;fontFamily=Ubuntu;fontSize=16;fontStyle=0;fillColor=#d5e8d4;" parent="pUB8m92aT1Gspuc-Nzx4-1" vertex="1">
          <mxGeometry x="400" y="400" width="40" height="40" as="geometry" />
        </mxCell>
        <mxCell id="jhIle7GFeXjiL3y6icWB-18" value="4" style="rounded=0;whiteSpace=wrap;html=1;shadow=0;strokeColor=#6c8ebf;strokeWidth=1;fontFamily=Ubuntu;fontSize=16;fontStyle=0;fillColor=#dae8fc;" parent="pUB8m92aT1Gspuc-Nzx4-1" vertex="1">
          <mxGeometry x="360" y="400" width="40" height="40" as="geometry" />
        </mxCell>
        <mxCell id="jhIle7GFeXjiL3y6icWB-22" style="edgeStyle=orthogonalEdgeStyle;rounded=1;orthogonalLoop=1;jettySize=auto;html=1;shadow=0;strokeColor=#6c8ebf;strokeWidth=1;fontFamily=Ubuntu;fontSize=14;fontStyle=0;endArrow=block;endFill=1;fillColor=#dae8fc;" parent="pUB8m92aT1Gspuc-Nzx4-1" source="jhIle7GFeXjiL3y6icWB-19" target="jhIle7GFeXjiL3y6icWB-21" edge="1">
          <mxGeometry relative="1" as="geometry" />
        </mxCell>
        <mxCell id="jhIle7GFeXjiL3y6icWB-19" value="" style="rounded=0;whiteSpace=wrap;html=1;shadow=0;strokeColor=#b85450;strokeWidth=1;fontFamily=Ubuntu;fontSize=16;fontStyle=0;fillColor=#f8cecc;" parent="pUB8m92aT1Gspuc-Nzx4-1" vertex="1">
          <mxGeometry x="440" y="400" width="40" height="40" as="geometry" />
        </mxCell>
        <mxCell id="jhIle7GFeXjiL3y6icWB-21" value="NULL" style="text;html=1;align=center;verticalAlign=middle;whiteSpace=wrap;rounded=0;fontFamily=Ubuntu;fontSize=16;fontStyle=0;" parent="pUB8m92aT1Gspuc-Nzx4-1" vertex="1">
          <mxGeometry x="520" y="400" width="50" height="40" as="geometry" />
        </mxCell>
        <mxCell id="jhIle7GFeXjiL3y6icWB-23" value="7" style="rounded=0;whiteSpace=wrap;html=1;shadow=0;strokeColor=#82b366;strokeWidth=1;fontFamily=Ubuntu;fontSize=16;fontStyle=0;fillColor=#d5e8d4;" parent="pUB8m92aT1Gspuc-Nzx4-1" vertex="1">
          <mxGeometry x="400" y="560" width="40" height="40" as="geometry" />
        </mxCell>
        <mxCell id="jhIle7GFeXjiL3y6icWB-24" value="3" style="rounded=0;whiteSpace=wrap;html=1;shadow=0;strokeColor=#6c8ebf;strokeWidth=1;fontFamily=Ubuntu;fontSize=16;fontStyle=0;fillColor=#dae8fc;" parent="pUB8m92aT1Gspuc-Nzx4-1" vertex="1">
          <mxGeometry x="360" y="560" width="40" height="40" as="geometry" />
        </mxCell>
        <mxCell id="jhIle7GFeXjiL3y6icWB-27" style="edgeStyle=orthogonalEdgeStyle;rounded=1;orthogonalLoop=1;jettySize=auto;html=1;entryX=0;entryY=0.5;entryDx=0;entryDy=0;shadow=0;strokeColor=#6c8ebf;strokeWidth=1;fontFamily=Ubuntu;fontSize=14;fontStyle=0;endArrow=block;endFill=1;fillColor=#dae8fc;" parent="pUB8m92aT1Gspuc-Nzx4-1" source="jhIle7GFeXjiL3y6icWB-25" target="jhIle7GFeXjiL3y6icWB-26" edge="1">
          <mxGeometry relative="1" as="geometry" />
        </mxCell>
        <mxCell id="jhIle7GFeXjiL3y6icWB-25" value="" style="rounded=0;whiteSpace=wrap;html=1;shadow=0;strokeColor=#b85450;strokeWidth=1;fontFamily=Ubuntu;fontSize=16;fontStyle=0;fillColor=#f8cecc;" parent="pUB8m92aT1Gspuc-Nzx4-1" vertex="1">
          <mxGeometry x="440" y="560" width="40" height="40" as="geometry" />
        </mxCell>
        <mxCell id="jhIle7GFeXjiL3y6icWB-26" value="NULL" style="text;html=1;align=center;verticalAlign=middle;whiteSpace=wrap;rounded=0;fontFamily=Ubuntu;fontSize=16;fontStyle=0;" parent="pUB8m92aT1Gspuc-Nzx4-1" vertex="1">
          <mxGeometry x="520" y="560" width="50" height="40" as="geometry" />
        </mxCell>
        <mxCell id="jhIle7GFeXjiL3y6icWB-29" value="1" style="rounded=0;whiteSpace=wrap;html=1;shadow=0;strokeColor=#6c8ebf;strokeWidth=1;fontFamily=Ubuntu;fontSize=16;fontStyle=0;fillColor=#dae8fc;" parent="pUB8m92aT1Gspuc-Nzx4-1" vertex="1">
          <mxGeometry x="200" y="720" width="40" height="40" as="geometry" />
        </mxCell>
        <mxCell id="jhIle7GFeXjiL3y6icWB-38" style="edgeStyle=orthogonalEdgeStyle;rounded=1;orthogonalLoop=1;jettySize=auto;html=1;entryX=0;entryY=0.5;entryDx=0;entryDy=0;shadow=0;strokeColor=#6c8ebf;strokeWidth=1;fontFamily=Ubuntu;fontSize=14;fontStyle=0;endArrow=block;endFill=1;fillColor=#dae8fc;" parent="pUB8m92aT1Gspuc-Nzx4-1" source="jhIle7GFeXjiL3y6icWB-30" target="jhIle7GFeXjiL3y6icWB-34" edge="1">
          <mxGeometry relative="1" as="geometry" />
        </mxCell>
        <mxCell id="jhIle7GFeXjiL3y6icWB-30" value="" style="rounded=0;whiteSpace=wrap;html=1;shadow=0;strokeColor=#b85450;strokeWidth=1;fontFamily=Ubuntu;fontSize=16;fontStyle=0;fillColor=#f8cecc;" parent="pUB8m92aT1Gspuc-Nzx4-1" vertex="1">
          <mxGeometry x="280" y="720" width="40" height="40" as="geometry" />
        </mxCell>
        <mxCell id="jhIle7GFeXjiL3y6icWB-32" style="edgeStyle=orthogonalEdgeStyle;rounded=1;orthogonalLoop=1;jettySize=auto;html=1;entryX=0;entryY=0.5;entryDx=0;entryDy=0;shadow=0;strokeColor=#6c8ebf;strokeWidth=1;fontFamily=Ubuntu;fontSize=14;fontStyle=0;endArrow=block;endFill=1;fillColor=#dae8fc;" parent="pUB8m92aT1Gspuc-Nzx4-1" source="jhIle7GFeXjiL3y6icWB-31" target="jhIle7GFeXjiL3y6icWB-29" edge="1">
          <mxGeometry relative="1" as="geometry" />
        </mxCell>
        <mxCell id="jhIle7GFeXjiL3y6icWB-31" value="" style="rounded=0;whiteSpace=wrap;html=1;shadow=0;strokeColor=#b85450;strokeWidth=1;fontFamily=Ubuntu;fontSize=16;fontStyle=0;fillColor=#f8cecc;" parent="pUB8m92aT1Gspuc-Nzx4-1" vertex="1">
          <mxGeometry x="120" y="720" width="40" height="40" as="geometry" />
        </mxCell>
        <mxCell id="jhIle7GFeXjiL3y6icWB-33" value="6" style="rounded=0;whiteSpace=wrap;html=1;shadow=0;strokeColor=#82b366;strokeWidth=1;fontFamily=Ubuntu;fontSize=16;fontStyle=0;fillColor=#d5e8d4;" parent="pUB8m92aT1Gspuc-Nzx4-1" vertex="1">
          <mxGeometry x="400" y="720" width="40" height="40" as="geometry" />
        </mxCell>
        <mxCell id="jhIle7GFeXjiL3y6icWB-34" value="2" style="rounded=0;whiteSpace=wrap;html=1;shadow=0;strokeColor=#6c8ebf;strokeWidth=1;fontFamily=Ubuntu;fontSize=16;fontStyle=0;fillColor=#dae8fc;" parent="pUB8m92aT1Gspuc-Nzx4-1" vertex="1">
          <mxGeometry x="360" y="720" width="40" height="40" as="geometry" />
        </mxCell>
        <mxCell id="jhIle7GFeXjiL3y6icWB-37" style="edgeStyle=orthogonalEdgeStyle;rounded=1;orthogonalLoop=1;jettySize=auto;html=1;entryX=0;entryY=0.5;entryDx=0;entryDy=0;shadow=0;strokeColor=#6c8ebf;strokeWidth=1;fontFamily=Ubuntu;fontSize=14;fontStyle=0;endArrow=block;endFill=1;fillColor=#dae8fc;" parent="pUB8m92aT1Gspuc-Nzx4-1" source="jhIle7GFeXjiL3y6icWB-35" target="jhIle7GFeXjiL3y6icWB-36" edge="1">
          <mxGeometry relative="1" as="geometry" />
        </mxCell>
        <mxCell id="jhIle7GFeXjiL3y6icWB-35" value="" style="rounded=0;whiteSpace=wrap;html=1;shadow=0;strokeColor=#b85450;strokeWidth=1;fontFamily=Ubuntu;fontSize=16;fontStyle=0;fillColor=#f8cecc;" parent="pUB8m92aT1Gspuc-Nzx4-1" vertex="1">
          <mxGeometry x="440" y="720" width="40" height="40" as="geometry" />
        </mxCell>
        <mxCell id="jhIle7GFeXjiL3y6icWB-36" value="NULL" style="text;html=1;align=center;verticalAlign=middle;whiteSpace=wrap;rounded=0;fontFamily=Ubuntu;fontSize=16;fontStyle=0;" parent="pUB8m92aT1Gspuc-Nzx4-1" vertex="1">
          <mxGeometry x="520" y="720" width="50" height="40" as="geometry" />
        </mxCell>
        <mxCell id="jhIle7GFeXjiL3y6icWB-39" value="List of Lists Sparse Matrix" style="text;html=1;align=center;verticalAlign=middle;whiteSpace=wrap;rounded=0;fontFamily=Ubuntu;fontSize=16;fontStyle=0;" parent="pUB8m92aT1Gspuc-Nzx4-1" vertex="1">
          <mxGeometry x="240" y="880" width="240" height="40" as="geometry" />
        </mxCell>
        <mxCell id="jhIle7GFeXjiL3y6icWB-45" style="edgeStyle=orthogonalEdgeStyle;rounded=1;orthogonalLoop=1;jettySize=auto;html=1;entryX=0.5;entryY=0;entryDx=0;entryDy=0;shadow=0;strokeColor=#6c8ebf;strokeWidth=1;fontFamily=Ubuntu;fontSize=14;fontStyle=0;endArrow=block;endFill=1;fillColor=#dae8fc;" parent="pUB8m92aT1Gspuc-Nzx4-1" source="jhIle7GFeXjiL3y6icWB-40" target="jhIle7GFeXjiL3y6icWB-7" edge="1">
          <mxGeometry relative="1" as="geometry" />
        </mxCell>
        <mxCell id="jhIle7GFeXjiL3y6icWB-40" value="column" style="text;html=1;align=center;verticalAlign=middle;whiteSpace=wrap;rounded=0;fontFamily=Ubuntu;fontSize=16;fontStyle=0;" parent="pUB8m92aT1Gspuc-Nzx4-1" vertex="1">
          <mxGeometry x="187.5" y="330" width="65" height="40" as="geometry" />
        </mxCell>
        <mxCell id="jhIle7GFeXjiL3y6icWB-43" style="edgeStyle=orthogonalEdgeStyle;rounded=1;orthogonalLoop=1;jettySize=auto;html=1;shadow=0;strokeColor=#6c8ebf;strokeWidth=1;fontFamily=Ubuntu;fontSize=14;fontStyle=0;endArrow=block;endFill=1;fillColor=#dae8fc;" parent="pUB8m92aT1Gspuc-Nzx4-1" source="jhIle7GFeXjiL3y6icWB-41" target="CJ7Yq6GX4A4KFnFIdWCx-34" edge="1">
          <mxGeometry relative="1" as="geometry" />
        </mxCell>
        <mxCell id="jhIle7GFeXjiL3y6icWB-41" value="value" style="text;html=1;align=center;verticalAlign=middle;whiteSpace=wrap;rounded=0;fontFamily=Ubuntu;fontSize=16;fontStyle=0;" parent="pUB8m92aT1Gspuc-Nzx4-1" vertex="1">
          <mxGeometry x="225" y="470" width="70" height="40" as="geometry" />
        </mxCell>
        <mxCell id="jhIle7GFeXjiL3y6icWB-44" style="edgeStyle=orthogonalEdgeStyle;rounded=1;orthogonalLoop=1;jettySize=auto;html=1;entryX=0.5;entryY=0;entryDx=0;entryDy=0;shadow=0;strokeColor=#6c8ebf;strokeWidth=1;fontFamily=Ubuntu;fontSize=14;fontStyle=0;endArrow=block;endFill=1;fillColor=#dae8fc;" parent="pUB8m92aT1Gspuc-Nzx4-1" source="jhIle7GFeXjiL3y6icWB-42" target="jhIle7GFeXjiL3y6icWB-8" edge="1">
          <mxGeometry relative="1" as="geometry" />
        </mxCell>
        <mxCell id="jhIle7GFeXjiL3y6icWB-42" value="next" style="text;html=1;align=center;verticalAlign=middle;whiteSpace=wrap;rounded=0;fontFamily=Ubuntu;fontSize=16;fontStyle=0;" parent="pUB8m92aT1Gspuc-Nzx4-1" vertex="1">
          <mxGeometry x="275" y="329" width="50" height="40" as="geometry" />
        </mxCell>
        <mxCell id="jhIle7GFeXjiL3y6icWB-47" style="edgeStyle=orthogonalEdgeStyle;rounded=1;orthogonalLoop=1;jettySize=auto;html=1;shadow=0;strokeColor=#6c8ebf;strokeWidth=1;fontFamily=Ubuntu;fontSize=14;fontStyle=0;endArrow=block;endFill=1;fillColor=#dae8fc;" parent="pUB8m92aT1Gspuc-Nzx4-1" source="jhIle7GFeXjiL3y6icWB-46" target="CJ7Yq6GX4A4KFnFIdWCx-33" edge="1">
          <mxGeometry relative="1" as="geometry" />
        </mxCell>
        <mxCell id="jhIle7GFeXjiL3y6icWB-46" value="row" style="text;html=1;align=center;verticalAlign=middle;whiteSpace=wrap;rounded=0;fontFamily=Ubuntu;fontSize=16;fontStyle=0;" parent="pUB8m92aT1Gspuc-Nzx4-1" vertex="1">
          <mxGeometry x="32" y="360" width="47.5" height="40" as="geometry" />
        </mxCell>
        <mxCell id="jhIle7GFeXjiL3y6icWB-49" style="edgeStyle=orthogonalEdgeStyle;rounded=1;orthogonalLoop=1;jettySize=auto;html=1;entryX=0;entryY=0.5;entryDx=0;entryDy=0;shadow=0;strokeColor=#6c8ebf;strokeWidth=1;fontFamily=Ubuntu;fontSize=14;fontStyle=0;endArrow=block;endFill=1;fillColor=#dae8fc;" parent="pUB8m92aT1Gspuc-Nzx4-1" source="jhIle7GFeXjiL3y6icWB-48" target="jhIle7GFeXjiL3y6icWB-0" edge="1">
          <mxGeometry relative="1" as="geometry" />
        </mxCell>
        <mxCell id="jhIle7GFeXjiL3y6icWB-48" value="next" style="text;html=1;align=center;verticalAlign=middle;whiteSpace=wrap;rounded=0;fontFamily=Ubuntu;fontSize=16;fontStyle=0;" parent="pUB8m92aT1Gspuc-Nzx4-1" vertex="1">
          <mxGeometry x="30" y="440" width="50" height="40" as="geometry" />
        </mxCell>
        <mxCell id="jhIle7GFeXjiL3y6icWB-51" style="edgeStyle=orthogonalEdgeStyle;rounded=1;orthogonalLoop=1;jettySize=auto;html=1;shadow=0;strokeColor=#6c8ebf;strokeWidth=1;fontFamily=Ubuntu;fontSize=14;fontStyle=0;endArrow=block;endFill=1;fillColor=#dae8fc;" parent="pUB8m92aT1Gspuc-Nzx4-1" source="jhIle7GFeXjiL3y6icWB-50" target="jhIle7GFeXjiL3y6icWB-10" edge="1">
          <mxGeometry relative="1" as="geometry" />
        </mxCell>
        <mxCell id="jhIle7GFeXjiL3y6icWB-50" value="column" style="text;html=1;align=center;verticalAlign=middle;whiteSpace=wrap;rounded=0;fontFamily=Ubuntu;fontSize=16;fontStyle=0;" parent="pUB8m92aT1Gspuc-Nzx4-1" vertex="1">
          <mxGeometry x="12" y="400" width="67.5" height="40" as="geometry" />
        </mxCell>
      </root>
    </mxGraphModel>
  </diagram>
</mxfile>
